HIERARCHY
ROOT pelvis
{
  OFFSET 0 100 0
  CHANNELS 6 Xposition Yposition Zposition Zrotation Xrotation Yrotation
  JOINT pelvis_right_femur
  {
    OFFSET -10.78128 -3.44521 -0.5502486
    CHANNELS 3 Zrotation Xrotation Yrotation
    JOINT right_femur_tibia
    {
      OFFSET -0.8047443 -44.0398 -0.1307829
      CHANNELS 3 Zrotation Xrotation Yrotation
      JOINT right_tibia_foot
      {
        OFFSET 3.006224 -47.83518 -5
        CHANNELS 3 Zrotation Xrotation Yrotation
        End Site
        {
          OFFSET 0 -5 15
        }
      }
    }
  }
  JOINT pelvis_left_femur
  {
    OFFSET 10.78128 -3.44521 -0.5502486
    CHANNELS 3 Zrotation Xrotation Yrotation
    JOINT left_femur_tibia
    {
      OFFSET 0.8047443 -44.0398 -0.1307829
      CHANNELS 3 Zrotation Xrotation Yrotation
      JOINT left_tibia_foot
      {
        OFFSET -4.370144 -48.10324 -4.275266
        CHANNELS 3 Zrotation Xrotation Yrotation
        End Site
        {
          OFFSET 0 -5 15
        }
      }
    }
  }
  JOINT pelvis_spine1
  {
    OFFSET 0 6.468898 -3.129235
    CHANNELS 3 Zrotation Xrotation Yrotation
    JOINT spine1
    {
      OFFSET 0 23.15396 4.99043
      CHANNELS 3 Zrotation Xrotation Yrotation
      JOINT spine2
      {
        OFFSET 0 20.79997 -5.064912
        CHANNELS 3 Zrotation Xrotation Yrotation
        JOINT neck
        {
          OFFSET 0 14.38658 9.616178
          CHANNELS 3 Zrotation Xrotation Yrotation
          End Site
          {
            OFFSET 0 20 0
          }
        }
      }
      JOINT right_manubrium
      {
        OFFSET -5.722621 16.35077 3.967754
        CHANNELS 3 Zrotation Xrotation Yrotation
        JOINT right_clavicle
        {
          OFFSET -13.16364 1.694482 -4.693211
          CHANNELS 3 Zrotation Xrotation Yrotation
          JOINT right_humerus
          {
            OFFSET -28.5034 -0.3100689 -2.792744
            CHANNELS 3 Zrotation Xrotation Yrotation
            JOINT right_radius
            {
              OFFSET -25.15693 0.02248979 -1.271978
              CHANNELS 3 Zrotation Xrotation Yrotation
              End Site
              {
                OFFSET -15 0 0
              }
            }
          }
        }
      }
      JOINT left_manubrium
      {
        OFFSET 5.722621 16.35077 3.967754
        CHANNELS 3 Zrotation Xrotation Yrotation
        JOINT left_clavicle
        {
          OFFSET 13.16364 1.694482 -4.693211
          CHANNELS 3 Zrotation Xrotation Yrotation
          JOINT left_humerus
          {
            OFFSET 29.39168 -1.063119 -2.237045
            CHANNELS 3 Zrotation Xrotation Yrotation
            JOINT left_radius
            {
              OFFSET 24.59957 -0.9528479 0.9047498
              CHANNELS 3 Zrotation Xrotation Yrotation
              End Site
              {
                OFFSET 15 -0 -0
              }
            }
          }
        }
      }
    }
  }
}
MOTION
Frames: 17
Frame Time: 0.0416666666667
507.2483 99.62089 3120.468 2.428322 -4.333794 17.98018 0.5860968 -25.60065 1.160171 -0 17.54961 -0 1.129234 0.5237915 -8.017515 -5.001506 15.22418 -7.73807 -0 14.11983 -0 -4.034523 -19.62075 13.40069 1.354161 -2.121747 6.352499 -0.6003839 14.96578 -5.430435 2.448834 21.08407 1.849074 -0.9720361 -19.40112 6.102917 -5.015985 -27.34273 10.67273 94.25969 16.82264 -12.97131 -0 0 20.50924 -21.46745 14.01583 14.13964 1.314901 -21.6239 -7.44971 -91.09239 16.62212 29.9598 0 0 -17.45181 2.457764 13.04761 13.18419
509.1866 98.51318 3126.849 2.261912 -3.60571 18.43374 0.9787684 -26.63056 1.152491 -0 12.57761 -0 1.698183 0.7931882 -8.042873 -4.932105 16.98225 -7.348205 -0 17.04792 -0 -5.062248 -19.41487 12.48877 1.362775 -2.128023 6.365789 -0.6007319 14.98055 -5.431897 2.444669 21.06393 1.839772 -0.9791325 -19.39971 6.093158 -5.014771 -27.37844 10.67962 94.24787 16.82841 -12.94804 -0 0 20.57021 -21.47503 14.04712 14.1638 1.303969 -21.619 -7.451317 -91.10626 16.5855 30.02994 0 0 -17.44356 2.450561 13.04193 13.19468
511.1732 97.635 3133.675 2.031727 -3.212693 18.792 1.754925 -26.32523 1.649894 -0 9.959691 -0 2.167087 1.166553 -8.065475 -4.696787 18.04819 -6.877837 -0 21.62515 -0 -6.104057 -18.08362 11.84144 1.370167 -2.131738 6.381392 -0.6002863 14.98882 -5.428035 2.440167 21.04224 1.828332 -0.9900919 -19.39841 6.083642 -5.014153 -27.42573 10.68376 94.21877 16.82797 -12.89577 -0 0 20.6659 -21.48374 14.08257 14.19866 1.293402 -21.59362 -7.443593 -91.14434 16.55509 30.13449 0 0 -17.39048 2.425726 13.02941 13.2232
513.1761 97.17981 3140.854 1.743158 -3.249298 18.97515 2.91539 -24.59653 2.712844 -0 9.719223 -0 2.414488 1.143857 -8.126969 -4.27285 18.12193 -6.48285 -0 27.94321 -0 -7.131363 -15.69466 11.66544 1.375953 -2.132712 6.398707 -0.5989623 14.98984 -5.418836 2.435482 21.01987 1.815221 -1.004571 -19.39744 6.074809 -5.014266 -27.48302 10.68484 94.17295 16.82097 -12.81567 -0 0 20.79346 -21.49334 14.12067 14.24315 1.283796 -21.54809 -7.426378 -91.20597 16.53238 30.27015 0 0 -17.29321 2.383756 13.01035 13.26902
515.1399 97.28755 3148.173 1.46053 -3.729205 18.88089 4.256243 -21.45805 4.115957 -0 11.33652 -0 2.286653 0.393371 -8.120368 -3.739609 16.7478 -6.300385 -0 35.82879 -0 -8.025256 -12.67142 12.11323 1.379789 -2.130906 6.417002 -0.5967153 14.98313 -5.404536 2.430792 20.99782 1.801049 -1.022001 -19.397 6.067113 -5.01526 -27.54804 10.68263 94.1119 16.80733 -12.71039 -0 0 20.94816 -21.50352 14.15959 14.29566 1.275796 -21.48383 -7.399934 -91.28928 16.5186 30.43172 0 0 -17.15469 2.326083 12.98541 13.33044
517.0104 97.9852 3155.341 1.332648 -4.578948 18.45488 5.372061 -17.09081 5.36248 -0 13.6363 -0 1.686342 -1.135565 -7.850851 -3.274959 13.49829 -6.345145 -0 44.50898 -0 -8.594883 -9.764825 13.13024 1.38138 -2.126419 6.435352 -0.5935732 14.96852 -5.385678 2.426324 20.97728 1.786602 -1.041521 -19.3973 6.061034 -5.017263 -27.61762 10.67705 94.03824 16.78733 -12.58454 -0 0 21.12279 -21.51386 14.19704 14.35374 1.270073 -21.4036 -7.365122 -91.39082 16.51474 30.61151 0 0 -16.98077 2.255315 12.95574 13.40458
518.7632 99.12742 3162.103 1.526529 -5.61723 17.75948 5.863541 -11.81511 5.997697 -0 15.19022 -0 0.7368989 -3.258347 -7.216405 -3.013264 8.270178 -6.486833 -0 52.38252 -0 -8.727865 -7.728192 14.41684 1.3805 -2.119479 6.452602 -0.5896843 14.94637 -5.363188 2.422375 20.95969 1.772859 -1.061933 -19.39846 6.057072 -5.020319 -27.68746 10.66819 93.95606 16.76187 -12.44515 -0 0 21.30706 -21.52378 14.2303 14.41398 1.267259 -21.31177 -7.323603 -91.50509 16.5215 30.79878 0 0 -16.78092 2.175438 12.92299 13.48719
520.4118 100.3957 3168.357 2.056396 -6.568847 16.95816 5.644826 -6.043159 5.977693 -0 15.16848 -0 -0.2225536 -5.71322 -6.315043 -2.845227 1.482849 -6.539054 -0 57.32712 -0 -8.5316 -6.850777 15.64675 1.377052 -2.110424 6.467403 -0.5853516 14.91767 -5.33838 2.419303 20.94659 1.760921 -1.081733 -19.40041 6.055695 -5.024319 -27.75226 10.6564 93.87089 16.73247 -12.3016 -0 0 21.48788 -21.53244 14.25645 14.47202 1.267839 -21.21434 -7.277939 -91.62455 16.53922 30.98005 0 0 -16.56831 2.091745 12.88935 13.57281
521.9926 101.3978 3174.168 2.679748 -7.165373 16.19805 5.038352 -0.2984086 5.617443 -0 13.79607 -0 -0.9367322 -8.276595 -5.315207 -2.43688 -6.006356 -6.332163 -0 57.66327 -0 -8.218376 -6.822061 16.70955 1.371126 -2.099689 6.478395 -0.581015 14.88414 -5.31289 2.417478 20.93942 1.751859 -1.09929 -19.40286 6.057233 -5.028961 -27.80635 10.64231 93.78916 16.70129 -12.16479 -0 0 21.65068 -21.53892 14.27283 14.52302 1.271996 -21.11845 -7.231459 -91.74017 16.56755 31.14052 0 0 -16.35868 2.010361 12.85727 13.65531
523.5522 101.8268 3179.679 3.031892 -7.269024 15.51809 4.515721 4.842 5.187645 -0 11.93681 -0 -1.425544 -10.78448 -4.282705 -1.51229 -13.18801 -5.731582 -0 53.10388 -0 -7.85395 -7.076805 17.66061 1.363036 -2.087816 6.484446 -0.5771649 14.84814 -5.288533 2.417195 20.93918 1.746518 -1.113096 -19.40538 6.061774 -5.033778 -27.84464 10.62682 93.71745 16.67086 -12.04573 -0 0 21.78157 -21.54233 14.27759 14.56243 1.279518 -21.03148 -7.187874 -91.84265 16.60533 31.2663 0 0 -16.16846 1.937497 12.82924 13.72854
525.1427 101.5826 3185.034 2.892571 -6.914753 14.87793 4.338114 8.982696 4.7326 -0 10.4337 -0 -1.777071 -13.09516 -3.20706 -0.1173914 -19.18205 -4.72408 -0 44.93865 -0 -7.361628 -7.217609 18.5219 1.353294 -2.075453 6.484856 -0.5742218 14.81244 -5.267127 2.418598 20.94625 1.745386 -1.121993 -19.40754 6.069108 -5.038239 -27.8635 10.61107 93.66153 16.64369 -11.95404 -0 0 21.8694 -21.54209 14.27006 14.58667 1.289795 -20.96018 -7.150773 -91.92368 16.65043 31.34657 0 0 -16.01246 1.878703 12.80744 13.78706
526.8171 100.7863 3190.377 2.341045 -6.272153 14.23273 4.397241 12.10793 4.225177 -0 9.816189 -0 -1.9387 -15.01782 -2.131256 1.330121 -23.44196 -3.570966 -0 35.45493 -0 -6.727887 -7.172194 19.24406 1.342554 -2.063349 6.479473 -0.5724429 14.77984 -5.250301 2.421638 20.96027 1.748534 -1.125321 -19.40904 6.078739 -5.041855 -27.86127 10.59631 93.6257 16.62188 -11.89676 -0 0 21.90717 -21.5381 14.25082 14.59367 1.301935 -20.90982 -7.123129 -91.97698 16.6999 31.37491 0 0 -15.90215 1.838271 12.79354 13.82658
528.6288 99.68709 3195.858 1.700326 -5.575655 13.56703 4.334565 14.5268 3.724749 -0 10.34002 -0 -1.819765 -16.22982 -1.1933 2.23335 -25.86359 -2.797284 -0 27.01133 -0 -6.069985 -7.093781 19.81511 1.331552 -2.052306 6.468717 -0.5718877 14.75282 -5.239304 2.426068 20.98019 1.755635 -1.122972 -19.40977 6.08994 -5.044286 -27.83848 10.58368 93.61227 16.60694 -11.87758 -0 0 21.89284 -21.5307 14.22157 14.58314 1.314908 -20.88369 -7.106921 -91.99906 16.75022 31.35004 0 0 -15.8445 1.818808 12.7885 13.84448
530.6249 98.54413 3201.62 1.33322 -5.041851 12.89927 3.824732 16.58138 3.383585 -0 12.17967 -0 -1.464474 -16.25535 -0.554526 2.172554 -26.70152 -2.864851 -0 21.18816 -0 -5.502123 -7.152639 20.2959 1.321053 -2.043108 6.453544 -0.5724436 14.73323 -5.234847 2.43148 21.00433 1.766006 -1.115373 -19.40982 6.101827 -5.045381 -27.79769 10.57414 93.62138 16.59961 -11.8965 -0 0 21.82942 -21.52066 14.18492 14.55651 1.327693 -20.88281 -7.10292 -91.98945 16.79767 31.27578 0 0 -15.84149 1.821006 12.79247 13.84004
532.8305 97.56962 3207.742 1.434455 -4.794143 12.29103 2.800449 18.33399 3.357813 -0 15.60014 -0 -1.030575 -14.61519 -0.3033103 1.149339 -26.3089 -3.807615 -0 18.39998 -0 -5.001632 -7.394011 20.71906 1.31179 -2.036436 6.435315 -0.5738862 14.72214 -5.237032 2.437367 21.03062 1.778714 -1.103394 -19.40939 6.113465 -5.045184 -27.74305 10.56827 93.65116 16.59989 -11.95013 -0 0 21.72431 -21.50902 14.14404 14.51672 1.339382 -20.90596 -7.110708 -91.95057 16.83868 31.16036 0 0 -15.89035 1.843681 12.80477 13.81448
535.2339 96.93885 3214.213 1.954017 -4.832066 11.84725 1.47571 19.47846 3.681529 -0 20.89286 -0 -0.6573804 -11.12587 -0.4193058 -0.4818668 -24.92431 -5.223231 -0 18.08276 -0 -4.443682 -7.759607 21.01013 1.304397 -2.032784 6.415599 -0.5759513 14.71984 -5.245398 2.443203 21.05689 1.792698 -1.088187 -19.40873 6.123973 -5.043883 -27.6796 10.56632 93.69818 16.60719 -12.03247 -0 0 21.58787 -21.49688 14.10222 14.46763 1.34925 -20.95015 -7.128914 -91.88704 16.87026 31.01485 0 0 -15.98461 1.884136 12.82406 13.77061
537.7835 96.79896 3220.926 2.669066 -5.06734 11.68437 0.2176319 19.50198 4.184517 -0 28.05595 -0 -0.4157579 -6.135155 -0.8122736 -2.256363 -22.64047 -6.583828 -0 19.18645 -0 -3.745936 -8.200426 21.04398 1.299337 -2.0324 6.395927 -0.5783966 14.72596 -5.259064 2.448529 21.08118 1.806929 -1.070986 -19.40804 6.132636 -5.041744 -27.61243 10.5682 93.7582 16.62054 -12.13622 -0 0 21.43155 -21.48525 14.06244 14.41333 1.356799 -21.01126 -7.155578 -91.80472 16.89036 30.85123 0 0 -16.11547 1.938736 12.84864 13.71229
